HIERARCHY
ROOT Hips
{
	OFFSET 0.000000 0.000000 0.000000
	CHANNELS 6 Xposition Yposition Zposition Xrotation Yrotation Zrotation
	JOINT LeftUpLeg_virtual
	{
		OFFSET 0.000000 0.000000 0.000000
		CHANNELS 3 Xrotation Yrotation Zrotation
		JOINT LeftUpLeg
		{
			OFFSET 11.394100 -6.187798 -0.413800
			CHANNELS 3 Xrotation Yrotation Zrotation
			JOINT LeftLeg
			{
				OFFSET 0.430247 -32.302673 3.732800
				CHANNELS 3 Xrotation Yrotation Zrotation
				JOINT LeftFoot
				{
					OFFSET -0.430247 -48.264931 -6.423300
					CHANNELS 3 Xrotation Yrotation Zrotation
					JOINT LeftToeBase
					{
						OFFSET 4.230900 -16.068199 23.438400
						CHANNELS 3 Xrotation Yrotation Zrotation
						JOINT LeftToe_End
						{
							OFFSET 4.510700 0.695400 19.974600
							CHANNELS 3 Xrotation Yrotation Zrotation
							End Site
							{
								OFFSET 0 0 0
							}
						}
					}
				}
			}
		}
	}
	JOINT RightUpLeg_virtual
	{
		OFFSET 0.000000 0.000000 0.000000
		CHANNELS 3 Xrotation Yrotation Zrotation
		JOINT RightUpLeg
		{
			OFFSET -11.333700 -6.187798 -0.413800
			CHANNELS 3 Xrotation Yrotation Zrotation
			JOINT RightLeg
			{
				OFFSET -0.430392 -32.302628 3.733000
				CHANNELS 3 Xrotation Yrotation Zrotation
				JOINT RightFoot
				{
					OFFSET 0.430392 -48.264973 -6.423500
					CHANNELS 3 Xrotation Yrotation Zrotation
					JOINT RightToeBase
					{
						OFFSET -4.230900 -16.068199 23.438400
						CHANNELS 3 Xrotation Yrotation Zrotation
						JOINT RightToe_End
						{
							OFFSET -4.510700 0.695400 19.974600
							CHANNELS 3 Xrotation Yrotation Zrotation
							End Site
							{
								OFFSET 0 0 0
							}
						}
					}
				}
			}
		}
	}
	JOINT Spine_virtual
	{
		OFFSET 0.000000 0.000000 0.000000
		CHANNELS 3 Xrotation Yrotation Zrotation
		JOINT Spine
		{
			OFFSET -0.002400 12.777504 0.315300
			CHANNELS 3 Xrotation Yrotation Zrotation
			JOINT Spine1
			{
				OFFSET -0.002067 5.816869 0.032633
				CHANNELS 3 Xrotation Yrotation Zrotation
				JOINT Spine1_split
				{
					OFFSET -0.002067 5.816869 0.032633
					CHANNELS 3 Xrotation Yrotation Zrotation
					JOINT Spine2
					{
						OFFSET -0.002067 5.816869 0.032633
						CHANNELS 3 Xrotation Yrotation Zrotation
						JOINT Neck_virtual
						{
							OFFSET 0.000000 0.000000 0.000000
							CHANNELS 3 Xrotation Yrotation Zrotation
							JOINT Neck
							{
								OFFSET -0.003700 21.199493 -0.826900
								CHANNELS 3 Xrotation Yrotation Zrotation
								JOINT Head
								{
									OFFSET 0.000000 20.442200 4.834800
									CHANNELS 3 Xrotation Yrotation Zrotation
									JOINT HeadTop_End
									{
										OFFSET 0.000000 34.668396 4.968400
										CHANNELS 3 Xrotation Yrotation Zrotation
										End Site
										{
											OFFSET 0 0 0
										}
									}
								}
							}
						}
						JOINT LeftShoulder_virtual
						{
							OFFSET 0.000000 0.000000 0.000000
							CHANNELS 3 Xrotation Yrotation Zrotation
							JOINT LeftShoulder
							{
								OFFSET 3.288150 8.794197 -1.372250
								CHANNELS 3 Xrotation Yrotation Zrotation
								JOINT LeftShoulder_split
								{
									OFFSET 3.288150 8.794197 -1.372250
									CHANNELS 3 Xrotation Yrotation Zrotation
									JOINT LeftArm
									{
										OFFSET 11.953299 -2.279007 -0.146200
										CHANNELS 3 Xrotation Yrotation Zrotation
										JOINT LeftForeArm
										{
											OFFSET 18.448900 0.000000 0.000000
											CHANNELS 3 Xrotation Yrotation Zrotation
											JOINT LeftHand
											{
												OFFSET 29.527798 0.000000 0.000000
												CHANNELS 3 Xrotation Yrotation Zrotation
												End Site
												{
													OFFSET 0 0 0
												}
											}
										}
									}
								}
							}
						}
						JOINT RightShoulder_virtual
						{
							OFFSET 0.000000 0.000000 0.000000
							CHANNELS 3 Xrotation Yrotation Zrotation
							JOINT RightShoulder
							{
								OFFSET -3.249400 8.794197 -1.372250
								CHANNELS 3 Xrotation Yrotation Zrotation
								JOINT RightShoulder_split
								{
									OFFSET -3.249400 8.794197 -1.372250
									CHANNELS 3 Xrotation Yrotation Zrotation
									JOINT RightArm
									{
										OFFSET -11.953299 -2.279007 -0.146200
										CHANNELS 3 Xrotation Yrotation Zrotation
										JOINT RightForeArm
										{
											OFFSET -18.448900 0.000000 0.000000
											CHANNELS 3 Xrotation Yrotation Zrotation
											JOINT RightHand
											{
												OFFSET -29.527802 0.000000 0.000000
												CHANNELS 3 Xrotation Yrotation Zrotation
												End Site
												{
													OFFSET 0 0 0
												}
											}
										}
									}
								}
							}
						}
					}
				}
			}
		}
	}
}
MOTION
Frames: 4
Frame Time: 0.03333333
3.309565 101.653931 -4.564781 0.000000 0.000000 0.000000 -4.713757 9.142436 0.384216 -23.497128 14.094497 11.279515 22.604385 2.869355 5.546638 4.337268 -10.641464 -13.404653 -2.317587 -3.067744 1.746528 0.000000 0.000000 0.000000 -4.560074 9.616792 0.345499 6.105039 -11.976606 3.131088 13.742165 -2.239956 -3.630901 -16.085073 -19.192543 9.199281 0.799518 1.656371 -18.317377 0.000000 0.000000 0.000000 -4.859085 10.616841 -0.112869 2.870176 -3.061058 3.851907 -2.126707 0.157469 3.514638 0.071874 -0.275110 -0.044292 0.000000 0.000000 0.000000 0.309026 2.370253 3.428112 15.027489 -0.191646 0.416400 -0.974231 -20.771777 -14.341230 0.000000 0.000000 0.000000 -1.800082 1.011632 2.678696 -0.995645 -19.543753 -12.504844 1.395307 0.632971 -5.166499 10.243004 -3.700467 -67.665728 3.740028 -6.913226 4.938420 0.000000 0.000000 0.000000 -0.947093 1.144109 3.616243 4.985661 1.993110 15.483617 -6.206801 1.103256 -0.205052 19.973635 10.585734 57.088859 -0.737932 -7.361384 -0.908432 0.000000 0.000000 0.000000 
3.286577 101.784103 -4.590860 0.000000 0.000000 0.000000 -4.320732 8.432166 0.246720 -23.294019 14.249558 11.366942 22.209596 2.866064 5.357827 4.066540 -9.914661 -13.394884 -2.093151 -3.086536 1.805658 0.000000 0.000000 0.000000 -4.172340 8.919875 0.199659 5.438223 -12.033423 2.912320 13.568320 -2.193978 -3.547846 -15.576651 -18.512056 9.339318 0.597359 1.632605 -18.011084 0.000000 0.000000 0.000000 -4.368315 9.989640 -0.298865 2.931670 -3.355040 3.952533 -2.338127 0.049102 3.514647 0.074254 -0.285271 -0.037327 0.000000 0.000000 0.000000 0.159961 2.268282 3.435021 14.740600 0.000938 0.318989 -1.186474 -19.252562 -14.569212 0.000000 0.000000 0.000000 -1.998028 0.918604 2.654701 -0.979539 -19.698505 -12.906737 1.659784 0.707877 -4.889089 10.901362 -2.162715 -67.978919 3.792803 -7.470874 4.712731 0.000000 0.000000 0.000000 -1.027709 1.042736 3.626964 5.088871 1.338780 15.573566 -6.789790 1.127460 -0.236506 22.149627 10.658854 55.822569 -1.164201 -7.579840 -0.366159 0.000000 0.000000 0.000000 
3.259249 101.904900 -4.652014 0.000000 0.000000 0.000000 -3.936270 7.554748 0.057406 -23.063621 14.369627 11.488831 21.884572 2.868745 5.181446 3.760357 -9.028493 -13.500067 -2.017352 -3.108689 1.817208 0.000000 0.000000 0.000000 -3.793479 8.059532 0.003061 4.715648 -12.126170 2.687067 13.412826 -2.158014 -3.447869 -15.110036 -17.663803 9.370222 0.519108 1.597035 -17.629591 0.000000 0.000000 0.000000 -3.883718 9.188537 -0.538758 3.028702 -3.564641 4.066723 -2.468157 -0.025290 3.530101 0.084331 -0.268130 -0.030576 0.000000 0.000000 0.000000 0.042065 2.188804 3.462578 14.347892 0.199724 0.212866 -1.435263 -17.812358 -14.754399 0.000000 0.000000 0.000000 -2.130463 0.852217 2.642116 -0.931726 -19.808250 -13.188172 1.765392 0.790976 -4.659977 11.331163 -1.033683 -68.466745 3.899981 -7.845461 4.605966 0.000000 0.000000 0.000000 -1.047783 0.984260 3.656758 5.140368 1.104425 15.712642 -7.443856 1.047680 -0.273873 22.882942 10.085683 54.734807 -1.571286 -8.367637 0.259167 0.000000 0.000000 0.000000 
3.226665 102.011520 -4.744829 0.000000 0.000000 0.000000 -3.563966 6.590820 -0.166064 -22.847842 14.412818 11.631389 21.651392 2.871622 5.033985 3.440401 -8.030250 -13.696714 -2.103689 -3.131018 1.756269 0.000000 0.000000 0.000000 -3.431240 7.094099 -0.225166 3.952811 -12.254180 2.460671 13.272821 -2.147731 -3.333281 -14.635699 -16.681209 9.306211 0.538053 1.545474 -17.166058 0.000000 0.000000 0.000000 -3.430148 8.260991 -0.809493 3.154445 -3.680547 4.180420 -2.520398 -0.069722 3.537791 0.097927 -0.229462 -0.029146 0.000000 0.000000 0.000000 -0.046751 2.132446 3.485113 13.860039 0.413638 0.137160 -1.658222 -16.436014 -14.888609 0.000000 0.000000 0.000000 -2.192850 0.808688 2.613755 -0.845354 -19.862661 -13.332017 1.730453 0.839922 -4.471310 11.612922 -0.514656 -69.012873 4.012355 -7.931933 4.579253 0.000000 0.000000 0.000000 -1.025484 0.964555 3.681528 5.125990 1.263783 15.923331 -7.926236 0.933807 -0.320844 22.258284 9.074632 53.947426 -1.872881 -9.395646 0.874742 0.000000 0.000000 0.000000 
